<mxfile host="app.diagrams.net" modified="2024-06-14T18:02:37.084Z" agent="Mozilla/5.0 (X11; Linux x86_64) AppleWebKit/537.36 (KHTML, like Gecko) Chrome/125.0.0.0 Safari/537.36" etag="V-nywmmzlDbj9DYwMGZn" version="24.5.4" type="github">
  <diagram name="Pagina-1" id="98qzeb5G9U1v5VFIJB_s">
    <mxGraphModel dx="891" dy="809" grid="0" gridSize="10" guides="1" tooltips="1" connect="1" arrows="1" fold="1" page="0" pageScale="1" pageWidth="827" pageHeight="1169" math="0" shadow="0">
      <root>
        <mxCell id="0" />
        <mxCell id="1" parent="0" />
        <mxCell id="aeyW9CHYFvf7CehLPwGB-1" value="" style="shape=folder;fontStyle=1;spacingTop=10;tabWidth=210;tabHeight=30;tabPosition=left;html=1;whiteSpace=wrap;" parent="1" vertex="1">
          <mxGeometry x="29" y="240" width="651" height="320" as="geometry" />
        </mxCell>
        <mxCell id="aeyW9CHYFvf7CehLPwGB-2" value="&lt;font color=&quot;#ffffff&quot;&gt;Interfaccia GestionePalestra&lt;/font&gt;" style="text;strokeColor=#C73500;fillColor=#fa6800;html=1;align=center;verticalAlign=middle;whiteSpace=wrap;rounded=0;fontSize=16;fontColor=#000000;" parent="1" vertex="1">
          <mxGeometry x="30" y="240" width="211" height="30" as="geometry" />
        </mxCell>
        <mxCell id="aeyW9CHYFvf7CehLPwGB-3" style="edgeStyle=none;curved=1;rounded=0;orthogonalLoop=1;jettySize=auto;html=1;exitX=0.5;exitY=0;exitDx=0;exitDy=0;fontSize=12;startSize=8;endSize=8;" parent="1" edge="1">
          <mxGeometry relative="1" as="geometry">
            <mxPoint x="444" y="324" as="sourcePoint" />
            <mxPoint x="444" y="324" as="targetPoint" />
          </mxGeometry>
        </mxCell>
        <mxCell id="aeyW9CHYFvf7CehLPwGB-4" value="" style="shape=folder;fontStyle=1;spacingTop=10;tabWidth=140;tabHeight=31;tabPosition=left;html=1;whiteSpace=wrap;" parent="1" vertex="1">
          <mxGeometry x="100" y="646" width="264.5" height="294" as="geometry" />
        </mxCell>
        <mxCell id="aeyW9CHYFvf7CehLPwGB-5" value="GestionePalestra" style="text;html=1;align=center;verticalAlign=middle;resizable=0;points=[];autosize=1;fontSize=16;fillColor=#60a917;fontColor=#ffffff;strokeColor=#2D7600;" parent="1" vertex="1">
          <mxGeometry x="100" y="646" width="140" height="31" as="geometry" />
        </mxCell>
        <mxCell id="aeyW9CHYFvf7CehLPwGB-6" value="&lt;font color=&quot;#ffffff&quot;&gt;View RimozionePalestra&lt;br&gt;&lt;/font&gt;" style="swimlane;fontStyle=1;align=center;verticalAlign=top;childLayout=stackLayout;horizontal=1;startSize=26;horizontalStack=0;resizeParent=1;resizeParentMax=0;resizeLast=0;collapsible=1;marginBottom=0;whiteSpace=wrap;html=1;fillColor=#fa6800;fontColor=#000000;strokeColor=#C73500;" parent="1" vertex="1">
          <mxGeometry x="41" y="437" width="150" height="70" as="geometry" />
        </mxCell>
        <mxCell id="aeyW9CHYFvf7CehLPwGB-7" value="" style="text;strokeColor=#C73500;fillColor=#fa6800;align=left;verticalAlign=top;spacingLeft=4;spacingRight=4;overflow=hidden;rotatable=0;points=[[0,0.5],[1,0.5]];portConstraint=eastwest;whiteSpace=wrap;html=1;fontColor=#000000;" parent="aeyW9CHYFvf7CehLPwGB-6" vertex="1">
          <mxGeometry y="26" width="150" height="24" as="geometry" />
        </mxCell>
        <mxCell id="aeyW9CHYFvf7CehLPwGB-8" value="" style="line;strokeWidth=1;fillColor=#fa6800;align=left;verticalAlign=middle;spacingTop=-1;spacingLeft=3;spacingRight=3;rotatable=0;labelPosition=right;points=[];portConstraint=eastwest;strokeColor=#FF8000;fontColor=#000000;" parent="aeyW9CHYFvf7CehLPwGB-6" vertex="1">
          <mxGeometry y="50" width="150" as="geometry" />
        </mxCell>
        <mxCell id="aeyW9CHYFvf7CehLPwGB-9" value="&lt;div&gt;&lt;br&gt;&lt;/div&gt;&lt;div&gt;&lt;br&gt;&lt;/div&gt;" style="text;strokeColor=#C73500;fillColor=#fa6800;align=left;verticalAlign=top;spacingLeft=4;spacingRight=4;overflow=hidden;rotatable=0;points=[[0,0.5],[1,0.5]];portConstraint=eastwest;whiteSpace=wrap;html=1;fontColor=#000000;" parent="aeyW9CHYFvf7CehLPwGB-6" vertex="1">
          <mxGeometry y="50" width="150" height="20" as="geometry" />
        </mxCell>
        <mxCell id="aeyW9CHYFvf7CehLPwGB-10" value="&lt;font color=&quot;#ffffff&quot;&gt;View inserimentoPalestra&lt;br&gt;&lt;/font&gt;" style="swimlane;fontStyle=1;align=center;verticalAlign=top;childLayout=stackLayout;horizontal=1;startSize=26;horizontalStack=0;resizeParent=1;resizeParentMax=0;resizeLast=0;collapsible=1;marginBottom=0;whiteSpace=wrap;html=1;fillColor=#fa6800;fontColor=#000000;strokeColor=#C73500;" parent="1" vertex="1">
          <mxGeometry x="285" y="467" width="209" height="70" as="geometry" />
        </mxCell>
        <mxCell id="aeyW9CHYFvf7CehLPwGB-11" value="" style="text;strokeColor=#C73500;fillColor=#fa6800;align=left;verticalAlign=top;spacingLeft=4;spacingRight=4;overflow=hidden;rotatable=0;points=[[0,0.5],[1,0.5]];portConstraint=eastwest;whiteSpace=wrap;html=1;fontColor=#000000;" parent="aeyW9CHYFvf7CehLPwGB-10" vertex="1">
          <mxGeometry y="26" width="209" height="24" as="geometry" />
        </mxCell>
        <mxCell id="aeyW9CHYFvf7CehLPwGB-12" value="" style="line;strokeWidth=1;fillColor=#fa6800;align=left;verticalAlign=middle;spacingTop=-1;spacingLeft=3;spacingRight=3;rotatable=0;labelPosition=right;points=[];portConstraint=eastwest;strokeColor=#FF8000;fontColor=#000000;" parent="aeyW9CHYFvf7CehLPwGB-10" vertex="1">
          <mxGeometry y="50" width="209" as="geometry" />
        </mxCell>
        <mxCell id="aeyW9CHYFvf7CehLPwGB-13" value="&lt;div&gt;&lt;br&gt;&lt;/div&gt;&lt;div&gt;&lt;br&gt;&lt;/div&gt;" style="text;strokeColor=#C73500;fillColor=#fa6800;align=left;verticalAlign=top;spacingLeft=4;spacingRight=4;overflow=hidden;rotatable=0;points=[[0,0.5],[1,0.5]];portConstraint=eastwest;whiteSpace=wrap;html=1;fontColor=#000000;" parent="aeyW9CHYFvf7CehLPwGB-10" vertex="1">
          <mxGeometry y="50" width="209" height="20" as="geometry" />
        </mxCell>
        <mxCell id="aeyW9CHYFvf7CehLPwGB-36" style="edgeStyle=none;curved=0;rounded=0;orthogonalLoop=1;jettySize=auto;html=1;exitX=1;exitY=0.25;exitDx=0;exitDy=0;entryX=0;entryY=0.5;entryDx=0;entryDy=0;fontSize=12;startSize=8;endSize=8;" parent="1" source="aeyW9CHYFvf7CehLPwGB-14" target="aeyW9CHYFvf7CehLPwGB-33" edge="1">
          <mxGeometry relative="1" as="geometry">
            <Array as="points">
              <mxPoint x="447" y="363" />
              <mxPoint x="447" y="414" />
            </Array>
          </mxGeometry>
        </mxCell>
        <mxCell id="aeyW9CHYFvf7CehLPwGB-14" value="&lt;font color=&quot;#ffffff&quot;&gt;Home GestionePalestra&lt;/font&gt;" style="swimlane;fontStyle=1;align=center;verticalAlign=top;childLayout=stackLayout;horizontal=1;startSize=26;horizontalStack=0;resizeParent=1;resizeParentMax=0;resizeLast=0;collapsible=1;marginBottom=0;whiteSpace=wrap;html=1;fillColor=#fa6800;fontColor=#000000;strokeColor=#C73500;" parent="1" vertex="1">
          <mxGeometry x="205" y="345" width="150" height="70" as="geometry" />
        </mxCell>
        <mxCell id="aeyW9CHYFvf7CehLPwGB-15" value="" style="text;strokeColor=#C73500;fillColor=#fa6800;align=left;verticalAlign=top;spacingLeft=4;spacingRight=4;overflow=hidden;rotatable=0;points=[[0,0.5],[1,0.5]];portConstraint=eastwest;whiteSpace=wrap;html=1;fontColor=#000000;" parent="aeyW9CHYFvf7CehLPwGB-14" vertex="1">
          <mxGeometry y="26" width="150" height="24" as="geometry" />
        </mxCell>
        <mxCell id="aeyW9CHYFvf7CehLPwGB-16" value="" style="line;strokeWidth=1;fillColor=#fa6800;align=left;verticalAlign=middle;spacingTop=-1;spacingLeft=3;spacingRight=3;rotatable=0;labelPosition=right;points=[];portConstraint=eastwest;strokeColor=#FF8000;fontColor=#000000;" parent="aeyW9CHYFvf7CehLPwGB-14" vertex="1">
          <mxGeometry y="50" width="150" as="geometry" />
        </mxCell>
        <mxCell id="aeyW9CHYFvf7CehLPwGB-17" value="&lt;div&gt;&lt;br&gt;&lt;/div&gt;&lt;div&gt;&lt;br&gt;&lt;/div&gt;" style="text;strokeColor=#C73500;fillColor=#fa6800;align=left;verticalAlign=top;spacingLeft=4;spacingRight=4;overflow=hidden;rotatable=0;points=[[0,0.5],[1,0.5]];portConstraint=eastwest;whiteSpace=wrap;html=1;fontColor=#000000;" parent="aeyW9CHYFvf7CehLPwGB-14" vertex="1">
          <mxGeometry y="50" width="150" height="20" as="geometry" />
        </mxCell>
        <mxCell id="aeyW9CHYFvf7CehLPwGB-18" value="&lt;font color=&quot;#ffffff&quot;&gt;GestionePalestra Controller&lt;br&gt;&lt;/font&gt;" style="swimlane;fontStyle=1;align=center;verticalAlign=top;childLayout=stackLayout;horizontal=1;startSize=26;horizontalStack=0;resizeParent=1;resizeParentMax=0;resizeLast=0;collapsible=1;marginBottom=0;whiteSpace=wrap;html=1;fillColor=#60a917;fontColor=#ffffff;strokeColor=#2D7600;" parent="1" vertex="1">
          <mxGeometry x="122" y="706" width="225" height="192" as="geometry" />
        </mxCell>
        <mxCell id="aeyW9CHYFvf7CehLPwGB-19" value="" style="text;strokeColor=#2D7600;fillColor=#60a917;align=left;verticalAlign=top;spacingLeft=4;spacingRight=4;overflow=hidden;rotatable=0;points=[[0,0.5],[1,0.5]];portConstraint=eastwest;whiteSpace=wrap;html=1;fontColor=#ffffff;" parent="aeyW9CHYFvf7CehLPwGB-18" vertex="1">
          <mxGeometry y="26" width="225" height="24" as="geometry" />
        </mxCell>
        <mxCell id="aeyW9CHYFvf7CehLPwGB-20" value="" style="line;strokeWidth=1;fillColor=#fa6800;align=left;verticalAlign=middle;spacingTop=-1;spacingLeft=3;spacingRight=3;rotatable=0;labelPosition=right;points=[];portConstraint=eastwest;strokeColor=#FF8000;fontColor=#000000;" parent="aeyW9CHYFvf7CehLPwGB-18" vertex="1">
          <mxGeometry y="50" width="225" as="geometry" />
        </mxCell>
        <mxCell id="aeyW9CHYFvf7CehLPwGB-21" value="&lt;div&gt;+ inserisciPalestra(Palestra)&lt;/div&gt;&lt;div&gt;+ rimuoviPalestra(NomePalestra)&lt;/div&gt;&lt;div&gt;+ mostraPalestre()&lt;br&gt;&lt;/div&gt;&lt;div&gt;+ inserisciPT(PT)&lt;/div&gt;&lt;div&gt;+ mostraPT()&lt;/div&gt;&lt;div&gt;+ rimuoviPT(PT)&lt;/div&gt;&lt;div&gt;+ aggiornaAbbonamenti(Abbonamenti)&amp;nbsp;&lt;/div&gt;&lt;div&gt;+ aggiornaTariffe(Tariffe)&lt;/div&gt;&lt;div&gt;+ aggiornaSpecifiche(Specifiche)&lt;/div&gt;" style="text;strokeColor=#2D7600;fillColor=#60a917;align=left;verticalAlign=top;spacingLeft=4;spacingRight=4;overflow=hidden;rotatable=0;points=[[0,0.5],[1,0.5]];portConstraint=eastwest;whiteSpace=wrap;html=1;fontColor=#ffffff;" parent="aeyW9CHYFvf7CehLPwGB-18" vertex="1">
          <mxGeometry y="50" width="225" height="142" as="geometry" />
        </mxCell>
        <mxCell id="aeyW9CHYFvf7CehLPwGB-22" style="edgeStyle=none;curved=1;rounded=0;orthogonalLoop=1;jettySize=auto;html=1;exitX=0.5;exitY=1;exitDx=0;exitDy=0;fontSize=12;startSize=8;endSize=8;dashed=1;entryX=0.25;entryY=0;entryDx=0;entryDy=0;" parent="1" source="aeyW9CHYFvf7CehLPwGB-14" target="aeyW9CHYFvf7CehLPwGB-18" edge="1">
          <mxGeometry relative="1" as="geometry">
            <mxPoint x="378" y="706" as="targetPoint" />
          </mxGeometry>
        </mxCell>
        <mxCell id="aeyW9CHYFvf7CehLPwGB-23" value="&amp;lt;&amp;lt;use&amp;gt;&amp;gt;" style="edgeLabel;html=1;align=center;verticalAlign=middle;resizable=0;points=[];fontSize=12;" parent="aeyW9CHYFvf7CehLPwGB-22" vertex="1" connectable="0">
          <mxGeometry x="-0.3538" y="5" relative="1" as="geometry">
            <mxPoint x="-5" y="37" as="offset" />
          </mxGeometry>
        </mxCell>
        <mxCell id="aeyW9CHYFvf7CehLPwGB-24" style="edgeStyle=none;curved=0;rounded=0;orthogonalLoop=1;jettySize=auto;html=1;exitX=0.5;exitY=1;exitDx=0;exitDy=0;fontSize=12;startSize=8;endSize=8;entryX=0;entryY=0.25;entryDx=0;entryDy=0;dashed=1;strokeColor=none;" parent="1" target="aeyW9CHYFvf7CehLPwGB-18" edge="1">
          <mxGeometry relative="1" as="geometry">
            <mxPoint x="120" y="510" as="sourcePoint" />
            <mxPoint x="120" y="829" as="targetPoint" />
            <Array as="points">
              <mxPoint x="120" y="730" />
            </Array>
          </mxGeometry>
        </mxCell>
        <mxCell id="aeyW9CHYFvf7CehLPwGB-25" style="edgeStyle=none;curved=0;rounded=0;orthogonalLoop=1;jettySize=auto;html=1;exitX=0.5;exitY=1;exitDx=0;exitDy=0;fontSize=12;startSize=8;endSize=8;dashed=1;entryX=0;entryY=0.5;entryDx=0;entryDy=0;" parent="1" target="aeyW9CHYFvf7CehLPwGB-19" edge="1">
          <mxGeometry relative="1" as="geometry">
            <mxPoint x="62.75" y="507" as="sourcePoint" />
            <mxPoint x="60" y="744.1268011527377" as="targetPoint" />
            <Array as="points">
              <mxPoint x="60" y="743" />
            </Array>
          </mxGeometry>
        </mxCell>
        <mxCell id="aeyW9CHYFvf7CehLPwGB-26" value="&amp;lt;&amp;lt;use&amp;gt;&amp;gt;" style="edgeLabel;html=1;align=center;verticalAlign=middle;resizable=0;points=[];fontSize=12;" parent="aeyW9CHYFvf7CehLPwGB-25" vertex="1" connectable="0">
          <mxGeometry x="-0.272" y="-1" relative="1" as="geometry">
            <mxPoint as="offset" />
          </mxGeometry>
        </mxCell>
        <mxCell id="aeyW9CHYFvf7CehLPwGB-27" style="edgeStyle=none;curved=0;rounded=0;orthogonalLoop=1;jettySize=auto;html=1;exitX=0.58;exitY=1.236;exitDx=0;exitDy=0;fontSize=12;startSize=8;endSize=8;dashed=1;entryX=1;entryY=0.5;entryDx=0;entryDy=0;exitPerimeter=0;" parent="1" source="aeyW9CHYFvf7CehLPwGB-13" target="aeyW9CHYFvf7CehLPwGB-19" edge="1">
          <mxGeometry relative="1" as="geometry">
            <mxPoint x="570" y="510" as="sourcePoint" />
            <mxPoint x="667" y="747" as="targetPoint" />
            <Array as="points">
              <mxPoint x="406" y="743" />
            </Array>
          </mxGeometry>
        </mxCell>
        <mxCell id="aeyW9CHYFvf7CehLPwGB-28" value="&amp;lt;&amp;lt;use&amp;gt;&amp;gt;" style="edgeLabel;html=1;align=center;verticalAlign=middle;resizable=0;points=[];fontSize=12;" parent="aeyW9CHYFvf7CehLPwGB-27" vertex="1" connectable="0">
          <mxGeometry x="-0.3526" relative="1" as="geometry">
            <mxPoint as="offset" />
          </mxGeometry>
        </mxCell>
        <mxCell id="aeyW9CHYFvf7CehLPwGB-29" style="edgeStyle=none;curved=0;rounded=0;orthogonalLoop=1;jettySize=auto;html=1;exitX=1;exitY=0.5;exitDx=0;exitDy=0;fontSize=12;startSize=8;endSize=8;entryX=0.5;entryY=0;entryDx=0;entryDy=0;" parent="1" source="aeyW9CHYFvf7CehLPwGB-15" target="aeyW9CHYFvf7CehLPwGB-10" edge="1">
          <mxGeometry relative="1" as="geometry">
            <mxPoint x="581" y="438" as="targetPoint" />
            <Array as="points">
              <mxPoint x="390" y="383" />
            </Array>
          </mxGeometry>
        </mxCell>
        <mxCell id="aeyW9CHYFvf7CehLPwGB-30" style="edgeStyle=none;curved=0;rounded=0;orthogonalLoop=1;jettySize=auto;html=1;fontSize=12;startSize=8;endSize=8;entryX=0.613;entryY=0.025;entryDx=0;entryDy=0;entryPerimeter=0;" parent="1" edge="1">
          <mxGeometry relative="1" as="geometry">
            <mxPoint x="202.05" y="355.25" as="sourcePoint" />
            <mxPoint x="83.99999999999993" y="437" as="targetPoint" />
            <Array as="points">
              <mxPoint x="84.05" y="355.25" />
            </Array>
          </mxGeometry>
        </mxCell>
        <mxCell id="aeyW9CHYFvf7CehLPwGB-32" value="&lt;font color=&quot;#ffffff&quot;&gt;View AggiornamentoPalestra&lt;br&gt;&lt;/font&gt;" style="swimlane;fontStyle=1;align=center;verticalAlign=top;childLayout=stackLayout;horizontal=1;startSize=26;horizontalStack=0;resizeParent=1;resizeParentMax=0;resizeLast=0;collapsible=1;marginBottom=0;whiteSpace=wrap;html=1;fillColor=#fa6800;fontColor=#000000;strokeColor=#C73500;" parent="1" vertex="1">
          <mxGeometry x="493" y="377" width="182" height="70" as="geometry" />
        </mxCell>
        <mxCell id="aeyW9CHYFvf7CehLPwGB-33" value="" style="text;strokeColor=#C73500;fillColor=#fa6800;align=left;verticalAlign=top;spacingLeft=4;spacingRight=4;overflow=hidden;rotatable=0;points=[[0,0.5],[1,0.5]];portConstraint=eastwest;whiteSpace=wrap;html=1;fontColor=#000000;" parent="aeyW9CHYFvf7CehLPwGB-32" vertex="1">
          <mxGeometry y="26" width="182" height="24" as="geometry" />
        </mxCell>
        <mxCell id="aeyW9CHYFvf7CehLPwGB-34" value="" style="line;strokeWidth=1;fillColor=#fa6800;align=left;verticalAlign=middle;spacingTop=-1;spacingLeft=3;spacingRight=3;rotatable=0;labelPosition=right;points=[];portConstraint=eastwest;strokeColor=#FF8000;fontColor=#000000;" parent="aeyW9CHYFvf7CehLPwGB-32" vertex="1">
          <mxGeometry y="50" width="182" as="geometry" />
        </mxCell>
        <mxCell id="aeyW9CHYFvf7CehLPwGB-35" value="&lt;div&gt;&lt;br&gt;&lt;/div&gt;&lt;div&gt;&lt;br&gt;&lt;/div&gt;" style="text;strokeColor=#C73500;fillColor=#fa6800;align=left;verticalAlign=top;spacingLeft=4;spacingRight=4;overflow=hidden;rotatable=0;points=[[0,0.5],[1,0.5]];portConstraint=eastwest;whiteSpace=wrap;html=1;fontColor=#000000;" parent="aeyW9CHYFvf7CehLPwGB-32" vertex="1">
          <mxGeometry y="50" width="182" height="20" as="geometry" />
        </mxCell>
        <mxCell id="aeyW9CHYFvf7CehLPwGB-37" style="edgeStyle=none;curved=0;rounded=0;orthogonalLoop=1;jettySize=auto;html=1;fontSize=12;startSize=8;endSize=8;dashed=1;exitX=1;exitY=0.5;exitDx=0;exitDy=0;" parent="1" source="aeyW9CHYFvf7CehLPwGB-32" edge="1">
          <mxGeometry relative="1" as="geometry">
            <mxPoint x="770" y="414" as="sourcePoint" />
            <mxPoint x="230" y="916" as="targetPoint" />
            <Array as="points">
              <mxPoint x="769" y="412" />
              <mxPoint x="771" y="935" />
              <mxPoint x="439" y="935" />
              <mxPoint x="330" y="935" />
              <mxPoint x="230" y="935" />
            </Array>
          </mxGeometry>
        </mxCell>
        <mxCell id="aeyW9CHYFvf7CehLPwGB-38" value="&amp;lt;&amp;lt;use&amp;gt;&amp;gt;" style="edgeLabel;html=1;align=center;verticalAlign=middle;resizable=0;points=[];fontSize=12;" parent="aeyW9CHYFvf7CehLPwGB-37" vertex="1" connectable="0">
          <mxGeometry x="-0.3526" relative="1" as="geometry">
            <mxPoint as="offset" />
          </mxGeometry>
        </mxCell>
        <mxCell id="HKZbP1l8f2vF29Pd1lQx-1" value="" style="shape=folder;fontStyle=1;spacingTop=10;tabWidth=46;tabHeight=28;tabPosition=left;html=1;whiteSpace=wrap;" parent="1" vertex="1">
          <mxGeometry x="453" y="647" width="264.5" height="189" as="geometry" />
        </mxCell>
        <mxCell id="HKZbP1l8f2vF29Pd1lQx-2" value="Log" style="text;html=1;align=center;verticalAlign=middle;resizable=0;points=[];autosize=1;fontSize=16;fillColor=#60a917;fontColor=#ffffff;strokeColor=#2D7600;" parent="1" vertex="1">
          <mxGeometry x="453" y="646" width="45" height="31" as="geometry" />
        </mxCell>
        <mxCell id="HKZbP1l8f2vF29Pd1lQx-3" value="Log Controller" style="swimlane;fontStyle=1;align=center;verticalAlign=top;childLayout=stackLayout;horizontal=1;startSize=26;horizontalStack=0;resizeParent=1;resizeParentMax=0;resizeLast=0;collapsible=1;marginBottom=0;whiteSpace=wrap;html=1;fillColor=#60a917;fontColor=#ffffff;strokeColor=#2D7600;" parent="1" vertex="1">
          <mxGeometry x="490.25" y="706" width="170" height="78" as="geometry" />
        </mxCell>
        <mxCell id="HKZbP1l8f2vF29Pd1lQx-4" value="" style="text;strokeColor=#2D7600;fillColor=#60a917;align=left;verticalAlign=top;spacingLeft=4;spacingRight=4;overflow=hidden;rotatable=0;points=[[0,0.5],[1,0.5]];portConstraint=eastwest;whiteSpace=wrap;html=1;fontColor=#ffffff;" parent="HKZbP1l8f2vF29Pd1lQx-3" vertex="1">
          <mxGeometry y="26" width="170" height="24" as="geometry" />
        </mxCell>
        <mxCell id="HKZbP1l8f2vF29Pd1lQx-5" value="" style="line;strokeWidth=1;fillColor=#fa6800;align=left;verticalAlign=middle;spacingTop=-1;spacingLeft=3;spacingRight=3;rotatable=0;labelPosition=right;points=[];portConstraint=eastwest;strokeColor=#FF8000;fontColor=#000000;" parent="HKZbP1l8f2vF29Pd1lQx-3" vertex="1">
          <mxGeometry y="50" width="170" as="geometry" />
        </mxCell>
        <mxCell id="HKZbP1l8f2vF29Pd1lQx-6" value="+ aggiungiVoce(Log)" style="text;strokeColor=#2D7600;fillColor=#60a917;align=left;verticalAlign=top;spacingLeft=4;spacingRight=4;overflow=hidden;rotatable=0;points=[[0,0.5],[1,0.5]];portConstraint=eastwest;whiteSpace=wrap;html=1;fontColor=#ffffff;" parent="HKZbP1l8f2vF29Pd1lQx-3" vertex="1">
          <mxGeometry y="50" width="170" height="28" as="geometry" />
        </mxCell>
        <mxCell id="HKZbP1l8f2vF29Pd1lQx-8" style="edgeStyle=none;curved=1;rounded=0;orthogonalLoop=1;jettySize=auto;html=1;entryX=0;entryY=0.75;entryDx=0;entryDy=0;fontSize=12;startSize=8;endSize=8;" parent="1" edge="1">
          <mxGeometry relative="1" as="geometry">
            <mxPoint x="347" y="756" as="sourcePoint" />
            <mxPoint x="490.25" y="756" as="targetPoint" />
          </mxGeometry>
        </mxCell>
      </root>
    </mxGraphModel>
  </diagram>
</mxfile>
